<svg xmlns="http://www.w3.org/2000/svg" version="1.1" xmlns:xlink="http://www.w3.org/1999/xlink" xmlns:svgjs="http://svgjs.dev/svgjs" viewBox="0 0 640 800" id="qqquad"><g shape-rendering="crispEdges" stroke-linejoin="round" fill="none" stroke-width="1" stroke="#222222"><polygon points="640,0 640,100 560,0"></polygon><polygon points="560,100 480,100 560,0"></polygon><polygon points="560,100 560,150 520,150"></polygon><polygon points="480,150 480,100 520,100"></polygon><polygon points="480,150 520,150 520,200"></polygon><polygon points="520,150 560,150 520,200"></polygon><polygon points="640,100 560,200 560,100"></polygon><polygon points="400,0 480,0 480,100"></polygon><polygon points="400,100 320,100 400,0"></polygon><polygon points="360,150 400,100 400,150"></polygon><polygon points="360,100 320,150 360,150"></polygon><polygon points="360,200 320,200 360,150"></polygon><polygon points="360,200 400,150 360,150"></polygon><polygon points="480,100 440,150 480,150"></polygon><polygon points="440,100 400,150 440,150"></polygon><polygon points="440,150 400,150 400,200"></polygon><polygon points="440,200 480,200 480,150"></polygon><polygon points="480,200 400,300 400,200"></polygon><polygon points="400,250 400,200 360,250"></polygon><polygon points="360,250 320,250 320,200"></polygon><polygon points="320,300 360,250 360,300"></polygon><polygon points="400,250 400,300 360,300"></polygon><polygon points="400,300 400,350 360,350"></polygon><polygon points="320,300 360,350 320,350"></polygon><polygon points="320,350 360,400 360,350"></polygon><polygon points="400,350 360,400 400,400"></polygon><polygon points="480,300 480,350 440,350"></polygon><polygon points="440,350 400,300 400,350"></polygon><polygon points="440,400 440,350 400,350"></polygon><polygon points="480,400 480,350 440,350"></polygon><polygon points="640,300 640,200 560,300"></polygon><polygon points="560,200 480,300 560,300"></polygon><polygon points="560,300 560,400 480,300"></polygon><polygon points="640,400 640,300 560,300"></polygon><polygon points="240,100 240,0 320,100"></polygon><polygon points="240,0 240,50 200,50"></polygon><polygon points="200,50 200,0 160,0"></polygon><polygon points="200,100 200,50 160,50"></polygon><polygon points="200,100 240,50 240,100"></polygon><polygon points="240,100 160,200 240,200"></polygon><polygon points="320,100 280,100 280,150"></polygon><polygon points="240,150 280,150 280,100"></polygon><polygon points="280,200 240,200 240,150"></polygon><polygon points="320,200 280,150 320,150"></polygon><polygon points="80,0 160,0 160,100"></polygon><polygon points="80,100 80,0 0,100"></polygon><polygon points="0,200 0,100 80,200"></polygon><polygon points="160,100 80,200 80,100"></polygon><polygon points="160,200 80,200 160,300"></polygon><polygon points="0,200 0,300 80,200"></polygon><polygon points="80,400 80,300 0,400"></polygon><polygon points="160,400 80,400 160,300"></polygon><polygon points="320,250 320,200 280,200"></polygon><polygon points="240,200 240,250 280,200"></polygon><polygon points="280,300 240,250 280,250"></polygon><polygon points="320,250 320,300 280,250"></polygon><polygon points="240,200 200,250 200,200"></polygon><polygon points="160,250 200,200 160,200"></polygon><polygon points="160,250 200,300 200,250"></polygon><polygon points="240,300 240,250 200,250"></polygon><polygon points="160,300 160,400 240,400"></polygon><polygon points="280,350 320,300 320,350"></polygon><polygon points="280,350 240,300 240,350"></polygon><polygon points="240,350 280,350 280,400"></polygon><polygon points="280,350 280,400 320,350"></polygon><polygon points="320,400 320,450 280,450"></polygon><polygon points="240,400 280,400 280,450"></polygon><polygon points="280,500 280,450 240,500"></polygon><polygon points="280,500 320,450 280,450"></polygon><polygon points="160,400 240,500 240,400"></polygon><polygon points="160,600 240,500 160,500"></polygon><polygon points="320,500 280,550 320,550"></polygon><polygon points="280,500 240,500 240,550"></polygon><polygon points="280,600 280,550 240,600"></polygon><polygon points="320,600 320,550 280,600"></polygon><polygon points="160,450 120,400 120,450"></polygon><polygon points="120,450 120,400 80,400"></polygon><polygon points="120,500 80,450 80,500"></polygon><polygon points="160,450 120,450 160,500"></polygon><polygon points="80,500 0,500 0,400"></polygon><polygon points="0,500 80,500 0,600"></polygon><polygon points="120,500 160,550 160,500"></polygon><polygon points="120,500 120,550 80,500"></polygon><polygon points="120,550 80,600 120,600"></polygon><polygon points="120,550 160,550 120,600"></polygon><polygon points="80,700 160,700 80,600"></polygon><polygon points="80,700 0,600 0,700"></polygon><polygon points="80,800 0,800 0,700"></polygon><polygon points="160,800 80,700 160,700"></polygon><polygon points="240,600 320,600 240,700"></polygon><polygon points="200,600 240,600 200,650"></polygon><polygon points="160,600 200,650 160,650"></polygon><polygon points="160,700 200,700 200,650"></polygon><polygon points="240,650 200,700 240,700"></polygon><polygon points="160,700 240,800 160,800"></polygon><polygon points="320,700 320,800 240,700"></polygon><polygon points="560,500 640,400 640,500"></polygon><polygon points="560,500 480,400 560,400"></polygon><polygon points="520,500 560,550 520,550"></polygon><polygon points="520,550 480,500 520,500"></polygon><polygon points="520,600 480,550 520,550"></polygon><polygon points="560,550 520,600 560,600"></polygon><polygon points="640,600 640,500 560,500"></polygon><polygon points="480,400 480,450 440,400"></polygon><polygon points="440,400 440,450 400,450"></polygon><polygon points="400,500 440,500 440,450"></polygon><polygon points="480,450 440,500 480,500"></polygon><polygon points="360,400 400,450 400,400"></polygon><polygon points="320,450 360,450 360,400"></polygon><polygon points="360,450 360,500 320,500"></polygon><polygon points="400,450 360,500 360,450"></polygon><polygon points="360,550 360,500 400,500"></polygon><polygon points="360,550 360,500 320,550"></polygon><polygon points="360,550 360,600 320,550"></polygon><polygon points="400,550 360,550 360,600"></polygon><polygon points="480,500 440,550 440,500"></polygon><polygon points="440,550 440,500 400,550"></polygon><polygon points="400,600 440,600 400,550"></polygon><polygon points="480,600 480,550 440,600"></polygon><polygon points="480,600 480,700 400,600"></polygon><polygon points="400,600 400,700 320,600"></polygon><polygon points="320,800 400,700 400,800"></polygon><polygon points="480,800 400,800 400,700"></polygon><polygon points="560,600 560,700 640,600"></polygon><polygon points="560,600 480,600 480,700"></polygon><polygon points="480,700 560,800 560,700"></polygon><polygon points="640,800 640,700 560,800"></polygon></g><g fill="hsl(220, 62%, 45%)" stroke-width="3" stroke="hsl(220, 43%, 13%)"></g></svg>