<svg xmlns="http://www.w3.org/2000/svg" version="1.1" xmlns:xlink="http://www.w3.org/1999/xlink" xmlns:svgjs="http://svgjs.dev/svgjs" viewBox="0 0 640 800" id="qqquad"><g shape-rendering="crispEdges" stroke-linejoin="round" fill="none" stroke-width="2" stroke="#222222"><polygon points="640,0 640,100 560,0"></polygon><polygon points="560,100 560,0 480,100"></polygon><polygon points="560,100 560,200 480,200"></polygon><polygon points="560,100 640,200 640,100"></polygon><polygon points="480,0 400,100 480,100"></polygon><polygon points="400,100 400,0 320,0"></polygon><polygon points="400,150 400,100 360,150"></polygon><polygon points="320,150 360,100 360,150"></polygon><polygon points="320,200 360,150 360,200"></polygon><polygon points="360,150 400,200 360,200"></polygon><polygon points="400,100 480,200 400,200"></polygon><polygon points="440,200 440,250 480,250"></polygon><polygon points="400,200 440,250 400,250"></polygon><polygon points="440,300 400,300 400,250"></polygon><polygon points="480,300 480,250 440,300"></polygon><polygon points="400,200 360,200 360,250"></polygon><polygon points="320,200 360,200 360,250"></polygon><polygon points="360,300 360,250 320,300"></polygon><polygon points="400,300 400,250 360,250"></polygon><polygon points="320,300 400,400 400,300"></polygon><polygon points="440,300 480,300 440,350"></polygon><polygon points="440,350 400,350 440,300"></polygon><polygon points="440,350 400,400 400,350"></polygon><polygon points="480,350 440,400 440,350"></polygon><polygon points="640,200 640,300 560,300"></polygon><polygon points="560,300 480,200 480,300"></polygon><polygon points="480,400 560,300 480,300"></polygon><polygon points="640,400 640,300 560,300"></polygon><polygon points="320,100 240,0 240,100"></polygon><polygon points="240,100 160,0 160,100"></polygon><polygon points="240,200 160,200 160,100"></polygon><polygon points="320,100 240,100 320,200"></polygon><polygon points="160,0 160,100 80,0"></polygon><polygon points="80,0 0,100 0,0"></polygon><polygon points="80,200 80,100 0,100"></polygon><polygon points="160,100 80,200 80,100"></polygon><polygon points="120,250 160,200 160,250"></polygon><polygon points="120,200 80,200 80,250"></polygon><polygon points="80,250 120,300 80,300"></polygon><polygon points="160,300 120,300 120,250"></polygon><polygon points="80,200 80,300 0,200"></polygon><polygon points="0,400 80,300 0,300"></polygon><polygon points="160,400 80,400 160,300"></polygon><polygon points="280,200 320,200 280,250"></polygon><polygon points="280,250 240,250 280,200"></polygon><polygon points="280,250 240,250 240,300"></polygon><polygon points="320,250 320,300 280,300"></polygon><polygon points="160,200 240,300 240,200"></polygon><polygon points="240,300 200,350 200,300"></polygon><polygon points="160,350 200,300 200,350"></polygon><polygon points="200,350 200,400 160,400"></polygon><polygon points="200,400 240,400 200,350"></polygon><polygon points="280,350 320,350 320,300"></polygon><polygon points="280,350 240,350 280,300"></polygon><polygon points="240,400 280,350 240,350"></polygon><polygon points="280,400 320,350 320,400"></polygon><polygon points="240,400 240,500 320,500"></polygon><polygon points="240,400 200,400 240,450"></polygon><polygon points="160,450 200,400 200,450"></polygon><polygon points="200,450 160,500 200,500"></polygon><polygon points="200,500 240,450 200,450"></polygon><polygon points="160,500 160,600 240,500"></polygon><polygon points="320,550 320,500 280,550"></polygon><polygon points="280,500 280,550 240,550"></polygon><polygon points="280,600 240,550 240,600"></polygon><polygon points="280,600 320,600 320,550"></polygon><polygon points="160,450 160,400 120,400"></polygon><polygon points="120,450 120,400 80,450"></polygon><polygon points="120,450 120,500 80,450"></polygon><polygon points="120,500 160,500 160,450"></polygon><polygon points="80,400 80,500 0,500"></polygon><polygon points="0,500 80,600 80,500"></polygon><polygon points="160,600 80,600 160,500"></polygon><polygon points="80,700 80,600 160,700"></polygon><polygon points="0,700 0,600 80,600"></polygon><polygon points="0,800 0,700 80,700"></polygon><polygon points="160,800 160,700 80,700"></polygon><polygon points="320,700 320,600 240,700"></polygon><polygon points="240,700 160,700 240,600"></polygon><polygon points="240,800 160,700 160,800"></polygon><polygon points="240,800 320,700 320,800"></polygon><polygon points="640,500 560,500 640,400"></polygon><polygon points="560,400 480,500 560,500"></polygon><polygon points="560,600 560,500 480,500"></polygon><polygon points="640,600 640,500 560,600"></polygon><polygon points="480,400 480,500 400,400"></polygon><polygon points="400,400 360,450 360,400"></polygon><polygon points="320,400 320,450 360,450"></polygon><polygon points="360,450 320,450 360,500"></polygon><polygon points="360,500 400,450 360,450"></polygon><polygon points="400,500 360,550 360,500"></polygon><polygon points="360,500 320,550 360,550"></polygon><polygon points="360,550 360,600 320,600"></polygon><polygon points="400,550 360,550 400,600"></polygon><polygon points="480,500 480,600 400,500"></polygon><polygon points="480,700 400,600 400,700"></polygon><polygon points="320,600 400,700 320,700"></polygon><polygon points="320,800 400,700 320,700"></polygon><polygon points="400,700 480,700 400,800"></polygon><polygon points="640,600 640,800 480,800"></polygon></g><g fill="hsl(220, 62%, 45%)" stroke-width="3" stroke="hsl(220, 43%, 13%)"></g></svg>